# xmcd
#
# Track frame offsets: 
#        150
#        3280
#        21977
#        40525
#        60280
#        81505
#        112715
#        137992
#        154427
#        179807
#        203975
#        227497
#        276537
#
# Disc length: 4147 seconds
#
# Revision: 2
# Processed by: cddbd v1.5.2PL0 Copyright (c) Steve Scherf et al.
# Submitted via: ExactAudioCopy v0.95b4
#
DISCID=b010310d
DTITLE=Rolling Stones - Basel 90 [CD 1)
DYEAR=1990
DGENRE=
TTITLE0=Announcement
TTITLE1=Start Me Up
TTITLE2=Sad, Sad, Sad
TTITLE3=Harlem Shuffle
TTITLE4=Tumbling Dice
TTITLE5=Miss You
TTITLE6=Almost Hear You Sigh
TTITLE7=Ruby Tuesday
TTITLE8=Rock and A Hard Place
TTITLE9=Mixed Emotions
TTITLE10=Honky Tonk Women
TTITLE11=Midnight Rambler
TTITLE12=You Can'T Always Get What You Want
EXTD=
EXTT0=
EXTT1=
EXTT2=
EXTT3=
EXTT4=
EXTT5=
EXTT6=
EXTT7=
EXTT8=
EXTT9=
EXTT10=
EXTT11=
EXTT12=
PLAYORDER=
